<svg width="30" height="30" viewBox="0 0 30 30" fill="none" xmlns="http://www.w3.org/2000/svg">
<path d="M21.9167 7.25H21.93M7.91667 1.25H21.25C24.9319 1.25 27.9167 4.23477 27.9167 7.91667V21.25C27.9167 24.9319 24.9319 27.9167 21.25 27.9167H7.91667C4.23477 27.9167 1.25 24.9319 1.25 21.25V7.91667C1.25 4.23477 4.23477 1.25 7.91667 1.25ZM19.9167 13.7433C20.0812 14.853 19.8917 15.9863 19.375 16.982C18.8583 17.9778 18.0409 18.7852 17.0388 19.2896C16.0368 19.7939 14.9013 19.9695 13.7937 19.7912C12.6862 19.613 11.663 19.0901 10.8698 18.2969C10.0766 17.5037 9.55364 16.4805 9.37542 15.373C9.1972 14.2654 9.37275 13.1299 9.8771 12.1278C10.3814 11.1258 11.1889 10.3083 12.1846 9.79165C13.1804 9.27499 14.3137 9.08545 15.4233 9.25C16.5552 9.41785 17.6031 9.94528 18.4123 10.7544C19.2214 11.5635 19.7488 12.6114 19.9167 13.7433Z" stroke="#1E1E1E" stroke-width="2.5" stroke-linecap="round" stroke-linejoin="round"/>
</svg>
