<svg width="30" height="28" viewBox="0 0 30 28" fill="none" xmlns="http://www.w3.org/2000/svg">
<path d="M19.9167 9.25C22.0384 9.25 24.0732 10.0929 25.5735 11.5931C27.0738 13.0934 27.9167 15.1283 27.9167 17.25V26.5833H22.5833V17.25C22.5833 16.5428 22.3024 15.8645 21.8023 15.3644C21.3022 14.8643 20.6239 14.5833 19.9167 14.5833C19.2094 14.5833 18.5311 14.8643 18.031 15.3644C17.531 15.8645 17.25 16.5428 17.25 17.25V26.5833H11.9167V17.25C11.9167 15.1283 12.7595 13.0934 14.2598 11.5931C15.7601 10.0929 17.7949 9.25 19.9167 9.25Z" stroke="#1E1E1E" stroke-width="2.5" stroke-linecap="round" stroke-linejoin="round"/>
<path d="M6.58333 10.5833H1.25V26.5833H6.58333V10.5833Z" stroke="#1E1E1E" stroke-width="2.5" stroke-linecap="round" stroke-linejoin="round"/>
<path d="M3.91667 6.58333C5.38943 6.58333 6.58333 5.38943 6.58333 3.91667C6.58333 2.44391 5.38943 1.25 3.91667 1.25C2.44391 1.25 1.25 2.44391 1.25 3.91667C1.25 5.38943 2.44391 6.58333 3.91667 6.58333Z" stroke="#1E1E1E" stroke-width="2.5" stroke-linecap="round" stroke-linejoin="round"/>
</svg>
